<svg xmlns="http://www.w3.org/2000/svg" viewBox="0 0 58.52 57.28"><defs><style>.cls-1{fill:#122e5c;}</style></defs><g id="Layer_2" data-name="Layer 2"><g id="Layer_1-2" data-name="Layer 1"><path class="cls-1" d="M38.28,57.28H2.07A2.06,2.06,0,0,1,0,55.22V2.07A2.06,2.06,0,0,1,2.07,0H38.28a2.07,2.07,0,0,1,2.07,2.07V15.84a2.07,2.07,0,0,1-4.14,0V4.13H4.13v49H36.21v-12a2.07,2.07,0,0,1,4.14,0v14A2.07,2.07,0,0,1,38.28,57.28Z"/><path class="cls-1" d="M56.46,30.71H24.37a2.07,2.07,0,0,1,0-4.13H56.46a2.07,2.07,0,0,1,0,4.13Z"/><path class="cls-1" d="M49.09,38.07a2.06,2.06,0,0,1-1.46-3.52l5.9-5.91-5.9-5.91a2.06,2.06,0,0,1,2.92-2.92l7.37,7.37a2.08,2.08,0,0,1,0,2.92l-7.37,7.37A2.06,2.06,0,0,1,49.09,38.07Z"/></g></g></svg>