<?xml version="1.0" standalone="no"?>
<!DOCTYPE svg PUBLIC "-//W3C//DTD SVG 20010904//EN"
 "http://www.w3.org/TR/2001/REC-SVG-20010904/DTD/svg10.dtd">
<svg version="1.0" xmlns="http://www.w3.org/2000/svg"
 width="822.000000pt" height="209.000000pt" viewBox="0 0 822.000000 209.000000"
 preserveAspectRatio="xMidYMid meet">
<metadata>
Created by potrace 1.16, written by Peter Selinger 2001-2019
</metadata>
<g transform="translate(0.000000,209.000000) scale(0.100000,-0.100000)"
fill="#000000" stroke="none">
<path d="M1150 1690 c0 -137 -2 -250 -5 -250 -3 0 -38 9 -78 20 -90 26 -245
28 -343 5 -233 -54 -418 -237 -478 -471 -23 -88 -21 -251 3 -346 59 -231 233
-403 471 -464 112 -29 273 -21 407 21 17 6 22 2 25 -17 l3 -23 192 -3 191 -2
4 322 c1 178 1 578 0 891 l-4 567 -194 0 -194 0 0 -250z m-131 -635 c85 -47
131 -127 131 -229 0 -157 -111 -266 -269 -266 -97 0 -187 56 -234 145 -29 54
-31 183 -3 235 35 67 95 118 166 141 50 17 154 4 209 -26z"/>
<path d="M2323 1479 c-251 -24 -464 -195 -548 -439 -26 -77 -29 -98 -29 -215
1 -114 4 -140 27 -211 47 -142 147 -272 267 -346 118 -73 222 -102 370 -101
152 1 284 44 400 132 297 224 336 698 81 974 -146 157 -339 228 -568 206z
m202 -417 c189 -97 189 -378 1 -474 -56 -29 -150 -35 -212 -14 -112 37 -174
127 -174 252 0 120 65 215 170 249 61 20 164 14 215 -13z"/>
<path d="M3256 1482 c-3 -4 -2 -304 1 -665 l6 -657 194 0 193 0 0 475 0 475
200 0 200 0 0 -475 0 -475 195 0 195 0 0 665 0 665 -589 0 c-325 0 -592 -4
-595 -8z"/>
<path d="M5213 1479 c-252 -24 -470 -199 -549 -443 -23 -69 -27 -99 -28 -206
-1 -105 3 -137 22 -200 36 -113 86 -196 171 -280 84 -83 176 -136 291 -166 96
-25 254 -23 353 4 42 12 79 22 82 22 3 0 5 -11 5 -25 l0 -25 195 0 195 0 0
660 0 660 -195 0 -195 0 0 -24 c0 -24 -1 -25 -32 -11 -72 29 -207 44 -315 34z
m181 -409 c60 -23 118 -78 144 -139 19 -45 21 -153 3 -205 -17 -50 -73 -112
-125 -138 -91 -46 -229 -30 -303 36 -113 98 -111 310 3 405 74 60 182 76 278
41z"/>
<path d="M6146 1482 c-3 -4 -2 -304 1 -665 l6 -657 194 0 193 0 0 475 0 475
198 2 197 3 3 188 2 187 -394 0 c-217 0 -397 -4 -400 -8z"/>
<path d="M7696 1074 c-67 -21 -137 -92 -156 -159 -42 -151 21 -295 149 -341
50 -18 164 -17 208 1 102 43 155 125 157 240 1 91 -22 151 -79 204 -71 66
-176 86 -279 55z"/>
</g>
</svg>
