<?xml version="1.0" encoding="utf-8"?>
<!-- Generator: Adobe Illustrator 24.1.2, SVG Export Plug-In . SVG Version: 6.00 Build 0)  -->
<svg version="1.1" id="Capa_1" xmlns="http://www.w3.org/2000/svg" xmlns:xlink="http://www.w3.org/1999/xlink" x="0px" y="0px"
	 viewBox="0 0 59.2 39.2" style="enable-background:new 0 0 59.2 39.2;" xml:space="preserve">
<style type="text/css">
	.st0{fill:#122E5C;}
</style>
<g id="Layer_2">
	<g id="Layer_1-2">
		<path class="st0" d="M29.6,39.2c-16,0-28.3-16.6-28.9-17.3c-1-1.4-1-3.2,0-4.6C1.3,16.6,13.6,0,29.6,0s28.3,16.6,28.8,17.3l0,0
			c1,1.4,1,3.2,0,4.6C58,22.6,45.6,39.2,29.6,39.2z M4.2,19.6c1.3,1.7,12,15.5,25.4,15.5S53.8,21.3,55,19.6
			C53.8,17.9,43,4.1,29.6,4.1S5.5,17.9,4.2,19.6z"/>
		<path class="st0" d="M29.6,31.3c-6.5,0-11.7-5.2-11.7-11.7c0-6.5,5.2-11.7,11.7-11.7s11.7,5.2,11.7,11.7c0,0,0,0,0,0
			C41.3,26.1,36.1,31.3,29.6,31.3z M29.6,12c-4.2,0-7.6,3.4-7.6,7.6c0,4.2,3.4,7.6,7.6,7.6s7.6-3.4,7.6-7.6c0,0,0,0,0,0
			C37.2,15.4,33.8,12,29.6,12C29.6,12,29.6,12,29.6,12L29.6,12z"/>
	</g>
</g>
</svg>
