<?xml version="1.0" encoding="utf-8"?>
<!-- Generator: Adobe Illustrator 24.1.2, SVG Export Plug-In . SVG Version: 6.00 Build 0)  -->
<svg version="1.1" id="Capa_1" xmlns="http://www.w3.org/2000/svg" xmlns:xlink="http://www.w3.org/1999/xlink" x="0px" y="0px"
	 viewBox="0 0 60.2 60.9" style="enable-background:new 0 0 60.2 60.9;" xml:space="preserve">
<style type="text/css">
	.st0{fill:#FFFFFF;}
</style>
<g id="Layer_2">
	<g id="Layer_1-2">
		<path class="st0" d="M46.4,60.9h-4.9c-3.4,0-6.2-2.8-6.2-6.2v-9.1c0-1-0.3-3.3-2.7-3.3h-5.1c-2.4,0-2.7,2.3-2.7,3.3v9.1
			c0,3.4-2.8,6.2-6.2,6.2h-4.9c-5.9,0-7.2-4.3-7.2-8v-16H5.6C2.8,37,0.4,35,0.1,32.2c-0.4-1.6,0-3.3,0.9-4.7
			C4.8,22.9,20.3,7.7,26.7,1.4c1.9-1.8,4.9-1.8,6.7,0c6.5,6.3,21.9,21.5,25.7,26.1c0.9,1.4,1.3,3.1,0.9,4.7
			c-0.3,2.8-2.7,4.8-5.5,4.6h-0.9v16C53.6,56.5,52.4,60.9,46.4,60.9z M27.5,38.1h5.1c4.7,0,6.8,3.9,6.8,7.5v9.1
			c0,1.1,0.9,2.1,2.1,2.1c0,0,0,0,0,0h4.9c1.5,0,3.1,0,3.1-3.9V34.8c0-1.1,0.9-2.1,2.1-2.1h3c0.9,0,1.3-0.1,1.4-1.2
			c0.1-0.5,0.1-1-0.1-1.4C52.2,25.5,35.6,9.2,30.6,4.3c-0.3-0.3-0.7-0.3-1,0c0,0,0,0,0,0l0,0C24.6,9.2,8,25.5,4.3,30.1
			c-0.2,0.5-0.2,0.9-0.1,1.4c0.2,1.1,0.6,1.2,1.4,1.2h3c1.1,0,2.1,0.9,2.1,2.1v18.1c0,3.9,1.6,3.9,3.1,3.9h4.9
			c1.1,0,2.1-0.9,2.1-2.1l0,0v-9.1C20.7,42,22.9,38.1,27.5,38.1z"/>
	</g>
</g>
</svg>
