<svg id="Capa_1" data-name="Capa 1" xmlns="http://www.w3.org/2000/svg" viewBox="0 0 260 85"><defs><style>.cls-1{fill:#dadada;}.cls-2{fill:#ea5b0c;}.cls-3{fill:#fff;}.cls-4{fill:#e30613;}.cls-5{fill:#122e5c;}.cls-6{fill:#e95d0c;}</style></defs><polygon class="cls-1" points="189.3 47.77 182.94 47.77 213.95 12.5 244.66 47.77 238.33 47.77 213.93 19.75 189.3 47.77"/><polygon class="cls-1" points="191.55 47.77 213.81 22.15 236.19 47.77 229.08 71.61 199.01 71.61 191.55 47.77"/><path class="cls-2" d="M227.32,51.76a1,1,0,0,0-1.18-.74,1,1,0,0,0-.74,1.17c.75,3.37-.28,5.3-1.23,6.31,0,.79.06,1.76.08,2.45a6.81,6.81,0,0,0,1.93-1.81C227.15,57.8,228.14,55.44,227.32,51.76Z"/><path class="cls-2" d="M215.72,46.44a10.23,10.23,0,0,1-2.61-.68,9.49,9.49,0,0,0-5-1h0a3.12,3.12,0,0,0-1.89.71s-1.63-1.61-2.51-1.64c0,0-.54-.06-.57.6,0,0-1.92,6.54,1.17,9.22a7.06,7.06,0,0,0,4.49,1.76,7,7,0,0,0,1.12,0,66.33,66.33,0,0,0,4.46-5h0C216.24,48.19,215.72,46.44,215.72,46.44Z"/><polygon class="cls-3" points="209 51.8 208.08 51.8 208.54 52.8 209 51.8"/><path class="cls-4" d="M204.6,28.52h0a1.14,1.14,0,0,0-1.13-1.19,1,1,0,0,0-.95.74h0a1,1,0,0,0-1-.74,1.14,1.14,0,0,0-1.13,1.19h0c0,.13,0,1.5,2.08,2.62h0C204.6,30,204.6,28.65,204.6,28.52Z"/><path class="cls-5" d="M234.2,72.5a30,30,0,0,0-5.88-1.78c0-2-2.8-3.79-2.8-3.79a3.47,3.47,0,0,1-2.3-3.19l-.52-12.5a10,10,0,0,1-4.24-3C216,44.48,220,41.8,220,41.8c-2.53,3.79-.45,6.32-.45,6.32,3.21,3.38,6,.37,6,.37,1.86-4.83-2-11.89-2-11.89C221,31.46,215.19,33,215.19,33a12.25,12.25,0,0,1-6.77-.3c-3.2-1.34-3.27,1.71-3.27,1.71C202.29,44,215.67,46,215.67,46a5,5,0,0,1-.41,2.72c-.85,2.15-7.51,8.66-7.51,8.66-2.79,2.3-4,7.81-4,7.81-3-1.75,1-6.14,1-6.14.93-1.41-.74-.52-.74-.52A12.29,12.29,0,0,0,201.28,62c-1.6,3.83,2.79,8,2.79,8a4.63,4.63,0,0,0,.7.42A40.77,40.77,0,0,0,195,72.5Zm-17.3-5.27a3.59,3.59,0,0,1,3.83,2.49l-1-.06c-.4-2-4.46-1.54-4.46-1.54,3.46-4.27-2.75-7.17-2.75-7.17C219.05,61.17,216.9,67.23,216.9,67.23Z"/><path class="cls-3" d="M217,38.25a.36.36,0,0,1-.36-.31,1.38,1.38,0,0,0-.61-1,2.51,2.51,0,0,0-1.75-.09.37.37,0,1,1-.23-.7,3.16,3.16,0,0,1,2.37.17,2.08,2.08,0,0,1,1,1.55.37.37,0,0,1-.31.42Z"/><path class="cls-3" d="M206.86,50.22h0a.26.26,0,0,1-.25-.25.65.65,0,0,0-.14-.45.53.53,0,0,0-.35-.12c-.42,0-.49.57-.5.6a.24.24,0,1,1-.48-.06c0-.36.28-1,1-1a1,1,0,0,1,.69.27,1.06,1.06,0,0,1,.3.8A.25.25,0,0,1,206.86,50.22Z"/><path class="cls-3" d="M211.92,50.22h0a.26.26,0,0,1-.24-.25.6.6,0,0,0-.15-.45.51.51,0,0,0-.34-.12c-.43,0-.5.57-.5.6a.24.24,0,0,1-.27.21.25.25,0,0,1-.22-.27c0-.36.29-1,1-1a1,1,0,0,1,.7.27,1.06,1.06,0,0,1,.3.8A.25.25,0,0,1,211.92,50.22Z"/><path class="cls-1" d="M15.34,25.38h6.6l5.81,19L34,25.3h5.28L45.6,44.35l5.8-19h6.44L48.28,53.6H42.91L36.59,35.27,30.27,53.6H24.9Z"/><path class="cls-1" d="M66.41,53.8a9.46,9.46,0,0,1-2.86-.42,6.73,6.73,0,0,1-2.35-1.26,6.14,6.14,0,0,1-1.58-2.07A6.57,6.57,0,0,1,59,47.23v-.08a6.85,6.85,0,0,1,.64-3A5.9,5.9,0,0,1,61.46,42a8.08,8.08,0,0,1,2.73-1.26,13.6,13.6,0,0,1,3.5-.42,15,15,0,0,1,2.86.24,17.38,17.38,0,0,1,2.38.64v-.36a3.65,3.65,0,0,0-1.16-2.92,5.12,5.12,0,0,0-3.44-1,14.23,14.23,0,0,0-3.1.3,20,20,0,0,0-2.83.86l-1.52-4.64a23.9,23.9,0,0,1,3.69-1.25,19.34,19.34,0,0,1,4.64-.48,13.24,13.24,0,0,1,4.3.62,7.6,7.6,0,0,1,2.94,1.79,7.17,7.17,0,0,1,1.76,2.94,12.5,12.5,0,0,1,.56,3.9V53.4H72.89V51.07a8.56,8.56,0,0,1-2.68,2A8.88,8.88,0,0,1,66.41,53.8Zm1.84-4.21a5.35,5.35,0,0,0,3.46-1A3.3,3.3,0,0,0,73,45.83V44.75a9.53,9.53,0,0,0-1.78-.58,9.33,9.33,0,0,0-2.1-.22,5.38,5.38,0,0,0-3.08.76,2.49,2.49,0,0,0-1.12,2.2V47a2.22,2.22,0,0,0,.92,1.92A3.88,3.88,0,0,0,68.25,49.59Z"/><path class="cls-1" d="M90.1,53.8A14.93,14.93,0,0,1,85.44,53a14.76,14.76,0,0,1-4.54-2.47l2.6-4A14,14,0,0,0,87,48.47a9.41,9.41,0,0,0,3.26.64,3.33,3.33,0,0,0,1.94-.44,1.34,1.34,0,0,0,.62-1.16v-.08a1.15,1.15,0,0,0-.36-.84,3.18,3.18,0,0,0-1-.62c-.41-.17-.89-.34-1.42-.5L88.38,45a20.89,20.89,0,0,1-2.26-.78A8.24,8.24,0,0,1,84.06,43a5.66,5.66,0,0,1-1.5-1.82A5.48,5.48,0,0,1,82,38.51v-.08a6.34,6.34,0,0,1,2.3-5,7.28,7.28,0,0,1,2.48-1.32,10.43,10.43,0,0,1,3.06-.44,13.76,13.76,0,0,1,4.14.66,15.07,15.07,0,0,1,3.86,1.83l-2.32,4.2a18.12,18.12,0,0,0-3.12-1.46,8.16,8.16,0,0,0-2.68-.54,2.77,2.77,0,0,0-1.68.42,1.28,1.28,0,0,0-.56,1.06v.08a1.06,1.06,0,0,0,.36.78,4.2,4.2,0,0,0,1,.64,13.38,13.38,0,0,0,1.38.58c.52.19,1.07.37,1.66.56.75.24,1.51.53,2.28.86a9,9,0,0,1,2.08,1.22,6,6,0,0,1,1.52,1.76,5,5,0,0,1,.61,2.52v.08a7,7,0,0,1-.63,3.1,5.64,5.64,0,0,1-1.74,2.15,7.78,7.78,0,0,1-2.62,1.26A11.88,11.88,0,0,1,90.1,53.8Z"/><path class="cls-1" d="M101.35,24.18h6.4v5.4h-6.4Zm.16,7.76h6.08V53.4h-6.08Z"/><path class="cls-6" d="M112.51,25.38H124a13.37,13.37,0,0,1,4.5.7,9.65,9.65,0,0,1,3.36,2,8.72,8.72,0,0,1,2.12,3.06,10.11,10.11,0,0,1,.74,3.95v.08a9.8,9.8,0,0,1-.88,4.28,8.62,8.62,0,0,1-2.42,3.08,10.26,10.26,0,0,1-3.6,1.86,15,15,0,0,1-4.42.62h-4.68V53.4h-6.17Zm11,14.13a5,5,0,0,0,3.6-1.22,4,4,0,0,0,1.28-3v-.08A3.84,3.84,0,0,0,127.1,32a5.66,5.66,0,0,0-3.66-1.08h-4.76v8.57Z"/><path class="cls-6" d="M147.33,53.88a12.27,12.27,0,0,1-4.46-.8,10.37,10.37,0,0,1-5.9-5.79,11.57,11.57,0,0,1-.84-4.5v-.08a12,12,0,0,1,.78-4.32,10.84,10.84,0,0,1,2.18-3.56,10.21,10.21,0,0,1,3.34-2.41,11.32,11.32,0,0,1,8.94.08,9.62,9.62,0,0,1,3.27,2.59,11,11,0,0,1,1.92,3.72,15.51,15.51,0,0,1,.62,4.38c0,.24,0,.49,0,.76s0,.55-.06.84H142.17A5.08,5.08,0,0,0,144,47.93,5.43,5.43,0,0,0,147.41,49a6.7,6.7,0,0,0,2.72-.52,9.09,9.09,0,0,0,2.49-1.68l3.48,3.08a10.85,10.85,0,0,1-3.68,3A11.57,11.57,0,0,1,147.33,53.88ZM151.25,41a5.83,5.83,0,0,0-1.44-3.3,4,4,0,0,0-3.08-1.26,4.08,4.08,0,0,0-3.1,1.24A6.16,6.16,0,0,0,142.09,41Z"/><path class="cls-6" d="M167.5,53.76a10,10,0,0,1-2.54-.3,4.62,4.62,0,0,1-2-1.06,5.11,5.11,0,0,1-1.28-2,8.78,8.78,0,0,1-.46-3.1V37.15H158.7V31.94h2.56V26.46h6.08v5.48h5v5.21h-5v9.19c0,1.4.66,2.09,2,2.09a5.93,5.93,0,0,0,3-.8v4.89a9.12,9.12,0,0,1-4.81,1.24Z"/><path class="cls-1" d="M48,65.25a1.43,1.43,0,0,1,.91.44,1.56,1.56,0,0,1,.38,1.1,1.75,1.75,0,0,1-.57,1.37,2.37,2.37,0,0,1-1.64.51H43.55V62H47a2.14,2.14,0,0,1,1.48.5,1.71,1.71,0,0,1,.55,1.33,1.36,1.36,0,0,1-.35,1,1.14,1.14,0,0,1-.75.41Zm-2.75-.51h1.44a.84.84,0,0,0,.59-.2.71.71,0,0,0,.22-.55.66.66,0,0,0-.21-.5.83.83,0,0,0-.54-.19H45.2Zm1.54,2.6a.9.9,0,0,0,.61-.2.72.72,0,0,0,.21-.55.65.65,0,0,0-.22-.52.81.81,0,0,0-.57-.2H45.2v1.47Z"/><path class="cls-1" d="M64.16,65.65A3.25,3.25,0,0,1,63.35,68a2.85,2.85,0,0,1-2.16.86A2.94,2.94,0,0,1,59,68a3.19,3.19,0,0,1-.84-2.31V62H59.8v3.68a1.83,1.83,0,0,0,.38,1.21,1.29,1.29,0,0,0,1,.44,1.19,1.19,0,0,0,1-.44,1.88,1.88,0,0,0,.36-1.21V62h1.65Z"/><path class="cls-1" d="M77.77,62.34a2.21,2.21,0,0,1,.93,1.42l-1.62.33a1.08,1.08,0,0,0-.42-.69,1.19,1.19,0,0,0-.75-.25,1,1,0,0,0-.65.2.61.61,0,0,0-.25.48c0,.3.18.48.54.56l1.39.31c1.23.28,1.84.93,1.84,2a1.85,1.85,0,0,1-.79,1.6,3.26,3.26,0,0,1-2,.57,3.57,3.57,0,0,1-2-.53,2.08,2.08,0,0,1-1-1.5l1.7-.33a1.41,1.41,0,0,0,2,.8.6.6,0,0,0,.26-.5.52.52,0,0,0-.13-.38,1,1,0,0,0-.49-.21l-1.4-.3c-1.2-.27-1.8-.92-1.8-1.94A1.88,1.88,0,0,1,74,62.39a3,3,0,0,1,1.92-.57A3.15,3.15,0,0,1,77.77,62.34Z"/><path class="cls-1" d="M87.76,68.67V62h1.65v6.7Z"/><path class="cls-1" d="M105,68.67h-1.36l-3.39-3.88v3.88H98.57V62h1.37l3.39,4V62H105Z"/><path class="cls-1" d="M119.36,68.67h-5.22V62h5.19v1.42h-3.54v1.26H119V66h-3.25v1.26h3.57Z"/><path class="cls-1" d="M132.86,62.34a2.25,2.25,0,0,1,.93,1.42l-1.62.33a1.08,1.08,0,0,0-.42-.69,1.19,1.19,0,0,0-.75-.25,1,1,0,0,0-.65.2.61.61,0,0,0-.25.48c0,.3.18.48.54.56l1.39.31c1.23.28,1.84.93,1.84,2a1.85,1.85,0,0,1-.79,1.6,3.26,3.26,0,0,1-2,.57,3.57,3.57,0,0,1-2-.53,2.08,2.08,0,0,1-.95-1.5l1.7-.33a1.41,1.41,0,0,0,2.05.8.6.6,0,0,0,.26-.5.52.52,0,0,0-.13-.38,1,1,0,0,0-.49-.21l-1.4-.3c-1.2-.27-1.8-.92-1.8-1.94a1.88,1.88,0,0,1,.73-1.54,3,3,0,0,1,1.92-.57A3.15,3.15,0,0,1,132.86,62.34Z"/><path class="cls-1" d="M147.16,62.34a2.25,2.25,0,0,1,.93,1.42l-1.62.33a1.08,1.08,0,0,0-.42-.69,1.19,1.19,0,0,0-.75-.25,1,1,0,0,0-.65.2.61.61,0,0,0-.25.48c0,.3.18.48.54.56l1.39.31c1.23.28,1.84.93,1.84,2a1.85,1.85,0,0,1-.79,1.6,3.28,3.28,0,0,1-2,.57,3.57,3.57,0,0,1-2-.53,2.08,2.08,0,0,1-1-1.5l1.7-.33a1.41,1.41,0,0,0,2,.8.6.6,0,0,0,.26-.5.52.52,0,0,0-.13-.38,1,1,0,0,0-.49-.21l-1.4-.3c-1.2-.27-1.8-.92-1.8-1.94a1.88,1.88,0,0,1,.73-1.54,3,3,0,0,1,1.92-.57A3.15,3.15,0,0,1,147.16,62.34Z"/></svg>