<?xml version="1.0" encoding="utf-8"?>
<!-- Generator: Adobe Illustrator 24.1.2, SVG Export Plug-In . SVG Version: 6.00 Build 0)  -->
<svg version="1.1" id="Capa_1" xmlns="http://www.w3.org/2000/svg" xmlns:xlink="http://www.w3.org/1999/xlink" x="0px" y="0px"
	 viewBox="0 0 47.5 56.5" style="enable-background:new 0 0 47.5 56.5;" xml:space="preserve">
<style type="text/css">
	.st0{fill:#122E5C;}
</style>
<path class="st0" d="M39.2,33.3c-3-1.1-5.7-2.7-8-4.8c3.1-2.6,4.9-7.1,4.9-12.9c0-3.7-0.3-7.5-2-10.5c-1.9-3.3-5.3-5-10.2-5
	C11.6,0,11.6,10.9,11.6,15.5c0,5.7,1.8,10.2,4.9,12.9c-2.4,2.1-5.1,3.8-8.1,4.8C1.9,35.3,0,38,0,45.4c0,3,1.8,5.8,4.5,7
	c6,2.6,12.5,4,19.1,4.1h0.1l0.1,0c6.6,0,13.1-1.4,19.1-4.1c2.8-1.2,4.6-4,4.6-7C47.6,38.1,45.7,35.3,39.2,33.3z M15.8,15.5
	c0-8.5,2.1-11.4,8.1-11.4v0c6.9,0,8.1,3.7,8.1,11.4c0,4.2-1.1,11.4-8.1,11.4C16.3,26.9,15.8,18.2,15.8,15.5z M41.3,48.6
	c-5.5,2.4-11.5,3.7-17.6,3.7c-6,0-12-1.3-17.6-3.7c-1.3-0.5-2.1-1.8-2.1-3.2c0-5.9,1-6.8,5.5-8.3c3.6-1.3,6.9-3.3,9.8-5.8
	c0.4-0.3,0.9-0.5,1.4-0.5c0.2,0,0.3,0,0.4,0c0.9,0.2,1.8,0.3,2.7,0.3c0.8,0,1.7-0.1,2.5-0.2c0.6-0.1,1.3,0.1,1.7,0.5
	c2.8,2.5,6.1,4.5,9.7,5.8c4.5,1.4,5.5,2.4,5.5,8.3C43.4,46.8,42.6,48.1,41.3,48.6z"/>
</svg>
