<?xml version="1.0" encoding="utf-8"?>
<!-- Generator: Adobe Illustrator 24.1.2, SVG Export Plug-In . SVG Version: 6.00 Build 0)  -->
<svg version="1.1" id="Capa_1" xmlns="http://www.w3.org/2000/svg" xmlns:xlink="http://www.w3.org/1999/xlink" x="0px" y="0px"
	 viewBox="0 0 37.3 29.5" style="enable-background:new 0 0 37.3 29.5;" xml:space="preserve">
<style type="text/css">
	.st0{fill:#FFFFFF;}
</style>
<g>
	<path class="st0" d="M2.2,4.1h33c0.1,0,0.2,0,0.3,0c1.1-0.1,2-1.1,1.9-2.2c-0.1-1.1-1.1-2-2.2-1.9h-33c-1,0.1-1.8,0.9-1.9,1.9
		C0.2,3.1,1.1,4.1,2.2,4.1z"/>
	<path class="st0" d="M2.1,16.8h33c0.1,0,0.2,0,0.3,0c1.1-0.1,2-1.1,1.9-2.2c-0.1-1.1-1.1-2-2.2-1.9h-33c-0.1,0-0.2,0-0.3,0
		c-1.1,0.1-2,1.1-1.9,2.2C0,16,1,16.9,2.1,16.8z"/>
	<path class="st0" d="M35.3,25.3h-33c-1,0.1-1.8,0.9-1.9,1.9c-0.1,1.1,0.8,2.1,1.9,2.2h33c0.1,0,0.2,0,0.3,0c1.1-0.1,2-1.1,1.9-2.2
		C37.4,26.1,36.4,25.3,35.3,25.3z"/>
</g>
</svg>
